<?xml version="1.0" encoding="utf-8"?>
<!-- Generator: Adobe Illustrator 18.1.0, SVG Export Plug-In . SVG Version: 6.00 Build 0)  -->
<svg version="1.1" id="Calque_1" xmlns="http://www.w3.org/2000/svg" xmlns:xlink="http://www.w3.org/1999/xlink" x="0px" y="0px"
	 viewBox="0 0 2670 2280" enable-background="new 0 0 2670 2280" xml:space="preserve">
<symbol  id="Chariot" viewBox="-35.2 -31.5 70.5 63">
	<path fill="#29ABE2" d="M31.8-10l-49.3,0v2.4l45.2,6c2.4,0.4,4.1,2.3,4.2,4.7v14.9c0,2.5-2,4.5-4.5,4.5h-44.9V26
		c0,3-2.5,5.5-5.5,5.5h-8.7c-1.9,0-3.5-1.6-3.5-3.5s1.6-3.5,3.5-3.5h7.2v-36c0-3,2.5-5.5,5.5-5.5h50.8c1.9,0,3.5,1.6,3.5,3.5
		C35.2-11.6,33.7-10,31.8-10z M2.2,0.1l-8.6-1.1v18.6h8.6V0.1z M6.2,17.6h8.6V1.7L6.2,0.6V17.6z M26.9,3.3l-8.1-1.1v15.3h8.1V3.3z
		 M-10.4,17.6V-1.6l-7.1-0.9v20.1H-10.4z"/>
	<path fill="#29ABE2" d="M-8.6-17.7c-3.8,0-6.9-3.1-6.9-6.9c0-3.8,3.1-6.9,6.9-6.9c3.8,0,6.9,3.1,6.9,6.9
		C-1.7-20.8-4.8-17.7-8.6-17.7z"/>
	<path fill="#29ABE2" d="M24.8-17.7c-3.8,0-6.9-3.1-6.9-6.9c0-3.8,3.1-6.9,6.9-6.9s6.9,3.1,6.9,6.9C31.7-20.8,28.6-17.7,24.8-17.7z"
		/>
</symbol>
<symbol  id="Nouveau_favori" viewBox="-32.4 -30.5 64.9 61">
	<g>
		<path fill="#29ABE2" d="M-0.4-21.9c-15.7,11.7-24.1,22.3-25,31.5v3.1c0.7,7.3,5.2,10.4,8.1,10.7c0.8,0.1,1.5,0.1,2.2,0.1
			c4.2,0,5.9-1.3,9.3-5.4l5.4-6.4l5.4,6.4c3.4,4.1,5.2,5.4,9.3,5.4c0.7,0,1.4,0,2.2-0.1c2.9-0.3,7.4-3.4,8.1-10.7V9.6
			c0-0.1,0-0.1,0-0.2l0.4-7.1H30c0.9,2.5,1.4,4.8,1.6,7V13c-0.9,11-8.1,16.7-14.4,17.4c-1,0.1-2,0.1-2.9,0.1
			c-7.2,0-10.7-3.1-14.7-7.9c-4,4.7-7.5,7.9-14.7,7.9c-0.9,0-1.9,0-2.9-0.1C-24.3,29.7-31.6,24-32.4,13V9.3
			c0.8-10.5,8.8-23.5,32-39.8c2.7,1.9,5.1,3.7,7.4,5.5v4.7H1.6C0.9-20.8,0.3-21.3-0.4-21.9z"/>
	</g>
	<g>
		<polygon fill="#FF0000" points="21.3,-6.2 21.3,4.9 11.8,4.9 11.8,-6.2 0.7,-6.2 0.7,-15.7 11.8,-15.7 11.8,-26.8 21.3,-26.8 
			21.3,-15.7 32.4,-15.7 32.4,-6.2 		"/>
	</g>
</symbol>
<symbol  id="Origine" viewBox="-34.7 -31.8 69.5 63.7">
	<path fill="#29ABE2" d="M34.7,5.3l-12.6,9.6v15.9h-9v-9L0,31.8L-34.7,5.3l5.5-7.2l3.7,2.9v-32.9h51.1V1l3.7-2.9L34.7,5.3z
		 M20.5-26.8H9v19H-9v-19h-11.5v31L0,19.9L20.5,4.2V-26.8z"/>
</symbol>
<symbol  id="Recherche" viewBox="-18.1 -17.6 35.9 34.8">
	<g>
		<g>
			<g>
				<path fill="#29ABE2" d="M-17.8-13.4c-0.4,0.5-0.4,1.2,0.1,1.6l9.6,8.7C-7.7-2.7-7-2.7-6.5-3.2L-3.1-7c0.4-0.5,0.4-1.2-0.1-1.6
					l-9.6-8.7c-0.5-0.4-1.2-0.4-1.6,0.1L-17.8-13.4z"/>
			</g>
		</g>
	</g>
	<g>
		<path fill="#29ABE2" d="M5.2,17.2c1.4,0,2.7-0.2,4.1-0.7c6.6-2.3,10-9.4,7.8-16c-1.8-5.2-6.7-8.5-11.9-8.5c-1.4,0-2.7,0.2-4.1,0.7
			C-5.5-5-9,2.2-6.7,8.8C-4.9,14,0,17.2,5.2,17.2 M5.2,13.8c-3.9,0-7.4-2.5-8.7-6.2c-0.8-2.3-0.7-4.8,0.4-7C-2-1.6-0.1-3.2,2.2-4
			c1-0.3,2-0.5,3-0.5c3.9,0,7.4,2.5,8.7,6.2c0.8,2.3,0.7,4.8-0.4,7c-1.1,2.2-2.9,3.9-5.2,4.7l0,0C7.2,13.6,6.2,13.8,5.2,13.8
			L5.2,13.8z"/>
	</g>
</symbol>
<symbol  id="maisin" viewBox="0 -84 52 84">
	<polygon fill="#22B573" points="52,-84 0,-84 0,-32 26,0 52,-32 	"/>
	<polygon fill="#FFFFFF" points="35,-62 15,-62 15,-42 35,-42 	"/>
</symbol>
<pattern  x="1390" y="590" width="50" height="70" patternUnits="userSpaceOnUse" id="test_motif" viewBox="84.1 -162.8 50 70" overflow="visible">
	<g>
		<polygon fill="none" points="84.1,-162.8 134.1,-162.8 134.1,-92.8 84.1,-92.8 		"/>
		<g>
			<line fill="none" stroke="#FF0000" stroke-width="14" stroke-miterlimit="10" x1="4.1" y1="-30" x2="114.1" y2="-110"/>
		</g>
		<g>
			<polygon fill="#0000FF" points="114.1,0 64.1,0 64.1,-100 114.1,-100 			"/>
			<line fill="none" stroke="#FF0000" stroke-width="14" stroke-miterlimit="10" x1="54.1" y1="-30" x2="164.1" y2="-110"/>
		</g>
		<g>
			<polygon fill="#0000FF" points="164.1,0 114.1,0 114.1,-100 164.1,-100 			"/>
			<line fill="none" stroke="#FF0000" stroke-width="14" stroke-miterlimit="10" x1="104.1" y1="-30" x2="214.1" y2="-110"/>
		</g>
		<g>
			<line fill="none" stroke="#FF0000" stroke-width="14" stroke-miterlimit="10" x1="4.1" y1="-100" x2="114.1" y2="-180"/>
		</g>
		<g>
			<polygon fill="#0000FF" points="114.1,-70 64.1,-70 64.1,-170 114.1,-170 			"/>
			<line fill="none" stroke="#FF0000" stroke-width="14" stroke-miterlimit="10" x1="54.1" y1="-100" x2="164.1" y2="-180"/>
		</g>
		<g>
			<polygon fill="#0000FF" points="164.1,-70 114.1,-70 114.1,-170 164.1,-170 			"/>
			<line fill="none" stroke="#FF0000" stroke-width="14" stroke-miterlimit="10" x1="104.1" y1="-100" x2="214.1" y2="-180"/>
		</g>
		<g>
			<polygon fill="#0000FF" points="114.1,-140 64.1,-140 64.1,-240 114.1,-240 			"/>
		</g>
		<g>
			<polygon fill="#0000FF" points="164.1,-140 114.1,-140 114.1,-240 164.1,-240 			"/>
		</g>
	</g>
</pattern>
<g>
	<g>
		
			<line fill="none" stroke="#22B573" stroke-width="30" stroke-linecap="round" stroke-miterlimit="10" x1="1723" y1="1167" x2="1723" y2="1167"/>
		
			<line fill="none" stroke="#22B573" stroke-width="30" stroke-linecap="round" stroke-miterlimit="10" stroke-dasharray="0,51.5" x1="1671.5" y1="1167" x2="1439.8" y2="1167"/>
		
			<line fill="none" stroke="#22B573" stroke-width="30" stroke-linecap="round" stroke-miterlimit="10" x1="1414" y1="1167" x2="1414" y2="1167"/>
		
			<line fill="none" stroke="#22B573" stroke-width="30" stroke-linecap="round" stroke-miterlimit="10" stroke-dasharray="0,47.2" x1="1414" y1="1119.8" x2="1414" y2="954.6"/>
		
			<line fill="none" stroke="#22B573" stroke-width="30" stroke-linecap="round" stroke-miterlimit="10" x1="1414" y1="931" x2="1414" y2="931"/>
		
			<line fill="none" stroke="#22B573" stroke-width="30" stroke-linecap="round" stroke-miterlimit="10" stroke-dasharray="0,51.5" x1="1465.5" y1="931" x2="1697.2" y2="931"/>
		
			<line fill="none" stroke="#22B573" stroke-width="30" stroke-linecap="round" stroke-miterlimit="10" x1="1723" y1="931" x2="1723" y2="931"/>
		
			<line fill="none" stroke="#22B573" stroke-width="30" stroke-linecap="round" stroke-miterlimit="10" stroke-dasharray="0,47.2" x1="1723" y1="978.2" x2="1723" y2="1143.4"/>
	</g>
	<rect x="1414" y="931" fill="none" stroke="#ED1C24" stroke-width="9" stroke-miterlimit="10" width="309" height="236"/>
	<rect x="1414" y="931" fill="none" stroke="#0071BC" stroke-width="4" stroke-miterlimit="10" width="309" height="236"/>
</g>
<g>
	<g>
		
			<line fill="none" stroke="#22B573" stroke-width="30" stroke-linecap="round" stroke-miterlimit="10" x1="1681" y1="585" x2="1681" y2="585"/>
		
			<polyline fill="none" stroke="#22B573" stroke-width="30" stroke-linecap="round" stroke-miterlimit="10" stroke-dasharray="0,49.7174" points="
			1717.1,619.2 1850,745 2124,781 2327.2,721 		"/>
		
			<line fill="none" stroke="#22B573" stroke-width="30" stroke-linecap="round" stroke-miterlimit="10" x1="2351" y1="714" x2="2351" y2="714"/>
		
			<line fill="none" stroke="#22B573" stroke-width="30" stroke-linecap="round" stroke-miterlimit="10" stroke-dasharray="0,48.1521" x1="2389.2" y1="743.2" x2="2484.9" y2="816.4"/>
		
			<line fill="none" stroke="#22B573" stroke-width="30" stroke-linecap="round" stroke-miterlimit="10" x1="2504" y1="831" x2="2504" y2="831"/>
		
			<line fill="none" stroke="#22B573" stroke-width="30" stroke-linecap="round" stroke-miterlimit="10" stroke-dasharray="0,49.9124" x1="2494.5" y1="880" x2="2470.8" y2="1002.5"/>
		
			<line fill="none" stroke="#22B573" stroke-width="30" stroke-linecap="round" stroke-miterlimit="10" x1="2466" y1="1027" x2="2466" y2="1027"/>
		
			<line fill="none" stroke="#22B573" stroke-width="30" stroke-linecap="round" stroke-miterlimit="10" stroke-dasharray="0,44.7214" x1="2422" y1="1019" x2="2356" y2="1007"/>
		
			<line fill="none" stroke="#22B573" stroke-width="30" stroke-linecap="round" stroke-miterlimit="10" x1="2334" y1="1003" x2="2334" y2="1003"/>
		
			<path fill="none" stroke="#22B573" stroke-width="30" stroke-linecap="round" stroke-miterlimit="10" stroke-dasharray="0,50.8513" d="
			M2310.5,957.9L2295,928c0,0-153-105-213,28s-247,114-262,58c-12.4-46.3-57.6-86.4-97.2-83.1"/>
		
			<line fill="none" stroke="#22B573" stroke-width="30" stroke-linecap="round" stroke-miterlimit="10" x1="1699" y1="939" x2="1699" y2="939"/>
	</g>
	<path fill="none" stroke="#ED1C24" stroke-width="9" stroke-miterlimit="10" d="M1681,585l169,160l274,36l227-67l153,117l-38,196
		l-132-24l-39-75c0,0-153-105-213,28s-247,114-262,58s-78-103-121-75"/>
	<path fill="none" stroke="#0071BC" stroke-width="4" stroke-miterlimit="10" d="M1681,585l169,160l274,36l227-67l153,117l-38,196
		l-132-24l-39-75c0,0-153-105-213,28s-247,114-262,58s-78-103-121-75"/>
</g>
<g>
	<g>
		
			<line fill="none" stroke="#22B573" stroke-width="30" stroke-linecap="round" stroke-miterlimit="10" x1="1893" y1="1237" x2="1893" y2="1237"/>
		
			<line fill="none" stroke="#22B573" stroke-width="30" stroke-linecap="round" stroke-miterlimit="10" stroke-dasharray="0,49.4964" x1="1941.3" y1="1247.7" x2="2158.8" y2="1295.7"/>
		
			<line fill="none" stroke="#22B573" stroke-width="30" stroke-linecap="round" stroke-miterlimit="10" x1="2183" y1="1301" x2="2183" y2="1301"/>
		
			<path fill="none" stroke="#22B573" stroke-width="30" stroke-linecap="round" stroke-miterlimit="10" stroke-dasharray="0,51.0419" d="
			M2207.7,1256.3L2288,1111c0,0,55-99,110,46s150,80,148,23c-1.4-39.4,38.8-83.3,63.8-106.6"/>
		
			<line fill="none" stroke="#22B573" stroke-width="30" stroke-linecap="round" stroke-miterlimit="10" x1="2629" y1="1056.6" x2="2629" y2="1056.6"/>
	</g>
	<path fill="none" stroke="#ED1C24" stroke-width="9" stroke-miterlimit="10" d="M1893,1237l290,64l105-190c0,0,55-99,110,46
		s150,80,148,23s83-123.4,83-123.4"/>
	<path fill="none" stroke="#0071BC" stroke-width="4" stroke-miterlimit="10" d="M1893,1237l290,64l105-190c0,0,55-99,110,46
		s150,80,148,23s83-123.4,83-123.4"/>
</g>
<use xlink:href="#Origine"  width="69.5" height="63.7" x="-34.7" y="-31.8" transform="matrix(1 0 0 -1 1367 633)" overflow="visible"/>
<use xlink:href="#Nouveau_favori"  width="64.9" height="61" x="-32.4" y="-30.5" transform="matrix(1 0 0 -1 1305 539)" overflow="visible"/>
<use xlink:href="#Origine"  width="69.5" height="63.7" x="-34.7" y="-31.8" transform="matrix(1 0 0 -1 1429 727)" overflow="visible"/>
<g>
	
		<use xlink:href="#maisin"  width="52" height="84" y="-84" transform="matrix(0.8083 0.5888 0.5888 -0.8083 367.1797 202.1006)" overflow="visible"/>
	
		<use xlink:href="#maisin"  width="52" height="84" y="-84" transform="matrix(0.8262 0.5634 0.5634 -0.8262 373.1166 207.8341)" overflow="visible"/>
	
		<use xlink:href="#maisin"  width="52" height="84" y="-84" transform="matrix(0.8456 0.5338 0.5338 -0.8456 393.6074 223.0365)" overflow="visible"/>
	
		<use xlink:href="#maisin"  width="52" height="84" y="-84" transform="matrix(0.8667 0.4988 0.4988 -0.8667 427.2345 245.3125)" overflow="visible"/>
	
		<use xlink:href="#maisin"  width="52" height="84" y="-84" transform="matrix(0.8893 0.4574 0.4574 -0.8893 472.5679 272.282)" overflow="visible"/>
	
		<use xlink:href="#maisin"  width="52" height="84" y="-84" transform="matrix(0.9131 0.4078 0.4078 -0.9131 528.1633 301.5865)" overflow="visible"/>
	
		<use xlink:href="#maisin"  width="52" height="84" y="-84" transform="matrix(0.9375 0.3481 0.3481 -0.9375 592.5641 330.8975)" overflow="visible"/>
	
		<use xlink:href="#maisin"  width="52" height="84" y="-84" transform="matrix(0.9612 0.2759 0.2759 -0.9612 664.3081 357.9261)" overflow="visible"/>
	
		<use xlink:href="#maisin"  width="52" height="84" y="-84" transform="matrix(0.982 0.1888 0.1888 -0.982 741.9456 380.4316)" overflow="visible"/>
	
		<use xlink:href="#maisin"  width="52" height="84" y="-84" transform="matrix(0.9964 8.425898e-02 8.425898e-02 -0.9964 824.0772 396.22)" overflow="visible"/>
	
		<use xlink:href="#maisin"  width="52" height="84" y="-84" transform="matrix(0.9997 -2.430729e-02 -2.430729e-02 -0.9997 901.468 402.2069)" overflow="visible"/>
	
		<use xlink:href="#maisin"  width="52" height="84" y="-84" transform="matrix(0.996 -8.949249e-02 -8.949249e-02 -0.996 966.3019 399.1451)" overflow="visible"/>
	
		<use xlink:href="#maisin"  width="52" height="84" y="-84" transform="matrix(0.9906 -0.137 -0.137 -0.9906 1037.4009 391.4799)" overflow="visible"/>
	
		<use xlink:href="#maisin"  width="52" height="84" y="-84" transform="matrix(0.9849 -0.173 -0.173 -0.9849 1112.7288 379.9882)" overflow="visible"/>
	
		<use xlink:href="#maisin"  width="52" height="84" y="-84" transform="matrix(0.9796 -0.201 -0.201 -0.9796 1190.4154 365.4554)" overflow="visible"/>
	
		<use xlink:href="#maisin"  width="52" height="84" y="-84" transform="matrix(0.9747 -0.2235 -0.2235 -0.9747 1268.6788 348.6643)" overflow="visible"/>
	
		<use xlink:href="#maisin"  width="52" height="84" y="-84" transform="matrix(0.9703 -0.2418 -0.2418 -0.9703 1345.7871 330.3932)" overflow="visible"/>
	
		<use xlink:href="#maisin"  width="52" height="84" y="-84" transform="matrix(0.9664 -0.2571 -0.2571 -0.9664 1420.0376 311.4164)" overflow="visible"/>
	
		<use xlink:href="#maisin"  width="52" height="84" y="-84" transform="matrix(0.9629 -0.2699 -0.2699 -0.9629 1489.7458 292.5048)" overflow="visible"/>
	
		<use xlink:href="#maisin"  width="52" height="84" y="-84" transform="matrix(0.9597 -0.2809 -0.2809 -0.9597 1553.2393 274.4271)" overflow="visible"/>
	
		<use xlink:href="#maisin"  width="52" height="84" y="-84" transform="matrix(0.9569 -0.2904 -0.2904 -0.9569 1608.853 257.9497)" overflow="visible"/>
	
		<use xlink:href="#maisin"  width="52" height="84" y="-84" transform="matrix(0.9543 -0.2987 -0.2987 -0.9543 1654.9274 243.838)" overflow="visible"/>
	
		<use xlink:href="#maisin"  width="52" height="84" y="-84" transform="matrix(0.952 -0.306 -0.306 -0.952 1689.8063 232.8559)" overflow="visible"/>
	
		<use xlink:href="#maisin"  width="52" height="84" y="-84" transform="matrix(0.9499 -0.3125 -0.3125 -0.9499 1711.8368 225.7667)" overflow="visible"/>
	
		<use xlink:href="#maisin"  width="52" height="84" y="-84" transform="matrix(0.948 -0.3183 -0.3183 -0.948 1719.3673 223.3331)" overflow="visible"/>
</g>
<use xlink:href="#maisin"  width="52" height="84" id="XMLID_1_" y="-84" transform="matrix(1 0 0 -1 1646 772)" overflow="visible"/>
<use xlink:href="#maisin"  width="52" height="84" y="-84" transform="matrix(1 0 0 -1 1629 1237)" overflow="visible"/>
<use xlink:href="#maisin"  width="52" height="84" y="-84" transform="matrix(1 0 0 -1 1466 1259)" overflow="visible"/>
<g>
	<use xlink:href="#maisin"  width="52" height="84" y="-84" transform="matrix(1 0 0 -1 800 498)" overflow="visible"/>
	<use xlink:href="#maisin"  width="52" height="84" y="-84" transform="matrix(1 0 0 -1 535 705)" overflow="visible"/>
	<use xlink:href="#maisin"  width="52" height="84" y="-84" transform="matrix(1 0 0 -1 638 896)" overflow="visible"/>
	<use xlink:href="#maisin"  width="52" height="84" y="-84" transform="matrix(1 0 0 -1 859 801)" overflow="visible"/>
	<use xlink:href="#maisin"  width="52" height="84" y="-84" transform="matrix(1 0 0 -1 1004 689)" overflow="visible"/>
	<use xlink:href="#maisin"  width="52" height="84" y="-84" transform="matrix(1 0 0 -1 1147 577)" overflow="visible"/>
</g>
<use xlink:href="#Recherche"  width="35.9" height="34.8" x="-18.1" y="-17.6" transform="matrix(1 0 0 -1 1682.2864 496.4367)" overflow="visible"/>
<use xlink:href="#Chariot"  width="70.5" height="63" x="-35.2" y="-31.5" transform="matrix(1 0 0 -1 1731.6053 357.1219)" overflow="visible"/>
<rect x="1120" y="1130" fill="#2700BF" width="80" height="100"/>
<polygon fill="#FF272D" points="1120,1150 1140,1130 1150,1130 1120,1160 "/>
<polygon fill="#FF272D" points="1120,1170 1160,1130 1170,1130 1120,1180 "/>
<polygon fill="#FF272D" points="1120,1190 1180,1130 1190,1130 1120,1200 "/>
<rect x="410" y="1230" fill="url(#test_motif)" stroke="url(#test_motif)" stroke-miterlimit="10" width="700" height="670"/>
</svg>
